# xmcd
#
# Track frame offsets:
#	150
#	11530
#	33465
#	52463
#	76739
#	94719
#	121202
#	150382
#	178432
#	189417
#	229244
#	272515
#
# Disc length: 4238 seconds
#
# Revision: 0
# Processed by: cddbd v1.4PL0 Copyright (c) Steve Scherf et al.
# Submitted via: OrangeCD 4.1
#
DISCID=97108c0c
DTITLE=Marvin Gaye - Marvin Gaye Live The Real Thing
DYEAR=1900
DGENRE=
TTITLE0=African Dance
TTITLE1=I Heard It Through The Grapevine
TTITLE2=Come Get To This
TTITLE3=Let's Get It On
TTITLE4=What's Going On
TTITLE5=Inner City Blues
TTITLE6=Joy
TTITLE7=Ain't Nothing Like The Real Thing
TTITLE8=Heaven Must Have Sent You
TTITLE9=Rockin' After Midnight
TTITLE10=Distant Lover
TTITLE11=Sexual Healing
EXTD=
EXTT0=
EXTT1=
EXTT2=
EXTT3=
EXTT4=
EXTT5=
EXTT6=
EXTT7=
EXTT8=
EXTT9=
EXTT10=
EXTT11=
PLAYORDER=
